<svg width="580" height="400" xmlns="http://www.w3.org/2000/svg">
 <!-- Created with Method Draw - http://github.com/duopixel/Method-Draw/ -->
 <g>
  <title>background</title>
  <rect fill="#fff" id="canvas_background" height="402" width="582" y="-1" x="-1"/>
  <g display="none" overflow="visible" y="0" x="0" height="100%" width="100%" id="canvasGrid">
   <rect fill="url(#gridpattern)" stroke-width="0" y="0" x="0" height="100%" width="100%"/>
  </g>
 </g>
 <g>
  <title>Layer 1</title>
  <ellipse stroke="#007f3f" ry="28.499998" rx="30.500002" id="svg_2" cy="123.999998" cx="78.000002" stroke-width="1.5" fill="#0fffc3"/>
  <ellipse stroke="#007f3f" ry="28.499998" rx="30.500002" id="svg_3" cy="73.999998" cx="108.000002" stroke-width="1.5" fill="#0fffc3"/>
  <ellipse stroke="#007f3f" ry="28.499998" rx="30.500002" id="svg_4" cy="123.999998" cx="140.000002" stroke-width="1.5" fill="#0fffc3"/>
  <text font-weight="bold" font-style="italic" xml:space="preserve" text-anchor="start" font-family="'Palatino Linotype', 'Book Antiqua', Palatino, serif" font-size="30" id="svg_5" y="135.5" x="69.5" stroke-width="0" stroke="#007f3f" fill="#000000">F</text>
  <text font-weight="bold" font-style="italic" xml:space="preserve" text-anchor="start" font-family="'Palatino Linotype', 'Book Antiqua', Palatino, serif" font-size="30" id="svg_6" y="86.5" x="95.5" stroke-width="0" stroke="#007f3f" fill="#000000">F</text>
  <text style="cursor: move;" font-weight="bold" font-style="italic" xml:space="preserve" text-anchor="start" font-family="'Palatino Linotype', 'Book Antiqua', Palatino, serif" font-size="30" id="svg_7" y="135.5" x="132.5" stroke-width="0" stroke="#007f3f" fill="#000000">S</text>
  <line stroke-linecap="null" stroke-linejoin="null" id="svg_8" y2="110.5" x2="110.5" y1="76.5" x1="61.5" stroke-width="3" stroke="#e07293" fill="none"/>
  <line stroke-linecap="null" stroke-linejoin="null" id="svg_9" y2="105.5" x2="107.5" y1="156.5" x1="111.5" stroke-width="3" stroke="#e07293" fill="none"/>
  <line stroke-linecap="null" stroke-linejoin="null" id="svg_10" y2="73.5" x2="159.5" y1="110.5" x1="110.5" stroke-width="3" stroke="#e07293" fill="none"/>
  <ellipse stroke="#5f5fdd" id="svg_13" cy="69.5" cx="170.5" stroke-width="1.5" fill="#0fffc3"/>
  <path id="svg_26" d="m109.677305,102.153471c7.00902,-15.947567 34.47059,0 0,20.504015c-34.47059,-20.504015 -7.00902,-36.451582 0,-20.504015z" stroke-width="1.5" stroke="#ff007f" fill="#FFAAB8"/>
  <path id="svg_28" d="m-29.501952,696.400394l11.000001,-190.042783l11.000001,190.042783l-5.500001,0l0,190.957234l-11,0l0,-190.957234l-5.500001,0z" opacity="0.5" stroke-width="1.5" stroke="#5f5fdd" fill="#d62261"/>
 </g>
</svg>